<?xml version="1.0" encoding="utf-8"?>
<!-- Generator: Adobe Illustrator 16.0.0, SVG Export Plug-In . SVG Version: 6.00 Build 0)  -->
<!DOCTYPE svg PUBLIC "-//W3C//DTD SVG 1.1//EN" "http://www.w3.org/Graphics/SVG/1.1/DTD/svg11.dtd">
<svg version="1.1" id="Layer_1" xmlns="http://www.w3.org/2000/svg" xmlns:xlink="http://www.w3.org/1999/xlink" x="0px" y="0px"
	 width="128px" height="128px" viewBox="0 0 128 128" enable-background="new 0 0 128 128" xml:space="preserve">
<g>
	<g id="background">
		
			<linearGradient id="SVGID_1_" gradientUnits="userSpaceOnUse" x1="-137.8354" y1="262.6133" x2="-137.8354" y2="261.6133" gradientTransform="matrix(-2.351322e-14 -116.928 -128 2.147932e-14 33614.5 -16053.4307)">
			<stop  offset="0" style="stop-color:#0D3CFB"/>
			<stop  offset="1" style="stop-color:#2CFEEC"/>
		</linearGradient>
		<path fill="url(#SVGID_1_)" d="M125.568,52.928l-21.824-37.696C102.08,12.374,99.498,9.941,96,7.936
			c-3.541-2.048-6.934-3.072-10.176-3.072H42.176c-3.243,0-6.634,1.024-10.176,3.072c-3.499,2.005-6.08,4.438-7.744,7.296
			L2.432,52.928C0.811,55.829,0,59.285,0,63.296c0,4.054,0.811,7.53,2.432,10.433l21.824,37.695
			c1.664,2.859,4.246,5.291,7.744,7.297c3.542,2.047,6.933,3.071,10.176,3.071h43.648c3.242,0,6.635-1.024,10.176-3.071
			c3.498-2.006,6.08-4.438,7.744-7.297l21.824-37.695C127.189,70.826,128,67.35,128,63.296
			C128,59.285,127.189,55.829,125.568,52.928z"/>
	</g>
</g>
<g>
	<g id="middle-1">
		<path fill="none" d="M12.608,91.264l9.664,16.704c3.925-1.322,8.512-1.835,13.76-1.536c6.4,0.428,12.458,2.027,18.176,4.801
			c2.304,1.066,5.013,2.623,8.128,4.672c1.75,1.109,4.65,3.072,8.704,5.888h14.784c2.262,0,4.65-0.513,7.168-1.536
			c2.475-1.023,4.693-2.367,6.656-4.031l-0.896-0.257c-4.65-1.194-10.091-3.114-16.32-5.76c-3.711-1.536-9.344-4.117-16.896-7.744
			c-12.331-5.888-21.355-9.706-27.072-11.456c-9.429-2.816-17.301-3.051-23.616-0.703C14.166,90.518,13.418,90.838,12.608,91.264z"
			/>
		
			<linearGradient id="SVGID_2_" gradientUnits="userSpaceOnUse" x1="53.1719" y1="-54.2051" x2="149.1719" y2="-54.2051" gradientTransform="matrix(1.28 0 0 -1.28 -68.06 7.06)">
			<stop  offset="0" style="stop-color:#000000;stop-opacity:0.3"/>
			<stop  offset="1" style="stop-color:#000000;stop-opacity:0.1"/>
		</linearGradient>
		<path fill="url(#SVGID_2_)" d="M111.552,97.92l11.776-20.416c-6.57,0.086-13.248-0.789-20.032-2.624
			c-8.917-2.304-17.601-6.165-26.048-11.584c-8.662-5.546-19.562-8.491-32.704-8.832c-12.928-0.341-24.661,1.899-35.2,6.72
			c-3.2,1.493-6.272,3.157-9.216,4.992c0.341,2.901,1.109,5.419,2.304,7.553l3.072,5.248c7.979-3.627,16.512-5.078,25.6-4.353
			c10.112,0.896,19.626,4.458,28.544,10.688c8.619,5.93,17.579,9.834,26.879,11.711C93.994,98.561,102.336,98.858,111.552,97.92z"/>
		
			<linearGradient id="SVGID_3_" gradientUnits="userSpaceOnUse" x1="59.1719" y1="-16.6489" x2="145.1719" y2="-16.6489" gradientTransform="matrix(1.28 0 0 -1.28 -68.06 7.06)">
			<stop  offset="0" style="stop-color:#000000;stop-opacity:0.3"/>
			<stop  offset="1" style="stop-color:#000000;stop-opacity:0.1"/>
		</linearGradient>
		<path fill="url(#SVGID_3_)" d="M118.208,40.32l-14.464-25.088c-0.683-1.195-1.558-2.325-2.624-3.392
			c-7.808-0.341-15.681,0.277-23.616,1.856c-4.821,0.939-11.584,2.752-20.288,5.44c-7.936,2.347-14.016,3.947-18.24,4.8
			c-6.998,1.451-13.931,2.069-20.8,1.856L7.488,44.288c4.523,0.469,8.875,0.704,13.056,0.704c7.552,0,15.211-0.811,22.976-2.432
			c4.608-0.981,11.008-2.709,19.2-5.184c8.448-2.56,16.768-3.648,24.959-3.264C96.213,34.496,106.389,36.565,118.208,40.32z"/>
	</g>
</g>
<defs>
	<filter id="Adobe_OpacityMaskFilter" filterUnits="userSpaceOnUse" x="41.6" y="27" width="44.8" height="64">
		<feColorMatrix  type="matrix" values="1 0 0 0 0  0 1 0 0 0  0 0 1 0 0  0 0 0 1 0"/>
	</filter>
</defs>
<mask maskUnits="userSpaceOnUse" x="41.6" y="27" width="44.8" height="64" id="mask">
	<path fill="#FFFFFF" filter="url(#Adobe_OpacityMaskFilter)" d="M125.568,47.992l-21.824-37.76C102.08,7.416,99.498,4.984,96,2.936
		c-3.541-2.005-6.934-3.008-10.176-3.008H42.176c-3.243,0-6.634,1.003-10.176,3.008c-3.499,2.048-6.08,4.48-7.744,7.296
		L2.432,47.992C0.811,50.851,0,54.307,0,58.36s0.811,7.509,2.432,10.369l21.824,37.76c1.664,2.858,4.246,5.291,7.744,7.296
		c3.542,2.048,6.933,3.071,10.176,3.071h43.648c3.242,0,6.635-1.023,10.176-3.071c3.498-2.005,6.08-4.438,7.744-7.296l21.824-37.76
		C127.189,65.869,128,62.413,128,58.36S127.189,50.851,125.568,47.992z"/>
</mask>
<g mask="url(#mask)">
	
		<g transform="             translate(                                 50 50 )                             translate(0 0)  scale(0.5)                               translate(                                 -50 -50 )">
		<g>
			<g id="picture" transform="scale(3.3333333333333335)">
				
					<linearGradient id="SVGID_4_" gradientUnits="userSpaceOnUse" x1="-92.7653" y1="140.6391" x2="-92.7653" y2="139.6391" gradientTransform="matrix(44.8 0 0 -64 4179.2959 9002.1006)">
					<stop  offset="0" style="stop-color:#FFFFFF"/>
					<stop  offset="1" style="stop-color:#E5EFF9"/>
				</linearGradient>
				<path fill="url(#SVGID_4_)" d="M23.4,39.6c-0.128,0-0.256,0-0.384-0.128C22.504,38.96,9.96,27.696,9.96,14.64
					C9.96,7.216,15.976,1.2,23.4,1.2c7.424,0,13.44,6.016,13.44,13.44c0,13.056-12.544,24.32-13.056,24.832
					C23.656,39.6,23.528,39.6,23.4,39.6z M23.4,2.48c-6.656,0-12.16,5.504-12.16,12.16c0,11.136,9.984,21.376,12.16,23.424
					c2.176-2.047,12.16-12.288,12.16-23.424C35.56,7.984,30.056,2.48,23.4,2.48z M25.96,15.28h-5.12c-0.384,0-0.64-0.256-0.64-0.64
					S20.456,14,20.84,14h5.12c0.384,0,0.64,0.256,0.64,0.64S26.344,15.28,25.96,15.28z M23.4,17.84c-0.384,0-0.64-0.256-0.64-0.64
					v-5.12c0-0.384,0.256-0.64,0.64-0.64c0.384,0,0.64,0.256,0.64,0.64v5.12C24.04,17.584,23.784,17.84,23.4,17.84z M23.4,22.96
					c-4.608,0-8.32-3.712-8.32-8.32c0-4.608,3.712-8.32,8.32-8.32c4.608,0,8.32,3.712,8.32,8.32
					C31.72,19.248,28.008,22.96,23.4,22.96z M23.4,7.6c-3.84,0-7.04,3.2-7.04,7.04c0,3.84,3.2,7.04,7.04,7.04
					c3.84,0,7.04-3.2,7.04-7.04C30.44,10.8,27.24,7.6,23.4,7.6z"/>
			</g>
		</g>
	</g>
</g>
<text transform="matrix(0.8292 0 0 1 29 110.5938)" fill="#FFFFFF" font-family="'MyriadPro-Regular'" font-size="21.9596">InstaMap</text>
</svg>
